<svg width="25" height="25" viewBox="0 0 25 25" fill="none" xmlns="http://www.w3.org/2000/svg">
	<g clip-path="url(#clip0_413_2900)">
		<path d="M19.6219 18.894L23.5409 14.975C24.1773 14.3082 24.5323 13.4218 24.5323 12.5C24.5323 11.5782 24.1773 10.6919 23.5409 10.025L19.6219 6.10601C19.3406 5.82461 18.9591 5.66648 18.5613 5.66638C18.1634 5.66629 17.7818 5.82425 17.5004 6.10551C17.219 6.38677 17.0609 6.7683 17.0608 7.16616C17.0607 7.56401 17.2186 7.94562 17.4999 8.22701L20.2799 11.008L2.02991 11.031C1.63208 11.031 1.25055 11.189 0.969247 11.4704C0.687942 11.7517 0.529907 12.1332 0.529907 12.531C0.529907 12.9288 0.687942 13.3104 0.969247 13.5917C1.25055 13.873 1.63208 14.031 2.02991 14.031L20.2609 14.008L17.4999 16.773C17.2267 17.0559 17.0755 17.4348 17.0789 17.8281C17.0823 18.2214 17.2401 18.5976 17.5182 18.8757C17.7963 19.1539 18.1725 19.3116 18.5658 19.315C18.9591 19.3184 19.338 19.1673 19.6209 18.894H19.6219Z" fill="#FAFAFA" />
	</g>
	<defs>
		<clipPath id="clip0_413_2900">
			<rect width="24" height="24" fill="white" transform="translate(0.5 0.5)" />
		</clipPath>
	</defs>
</svg>
